<svg width="64" height="64" viewBox="0 0 64 64" fill="none" xmlns="http://www.w3.org/2000/svg">
<path d="M12 26.0163C25.1858 21.6147 37.9117 17.3667 51 13C46.6372 26.1139 42.3721 38.9279 38.0232 52C36.5318 49.3633 35.1519 46.9149 33.772 44.4665C32.7893 42.7086 31.8554 40.9159 30.817 39.2C30.2664 38.2931 30.2595 37.6584 30.9564 36.7585C34.1971 32.5802 37.3472 28.3252 40.5182 24.091C40.8179 23.6934 41.0549 23.247 41.1524 22.6611C36.9848 25.7652 32.7336 28.7716 28.6914 32.0292C26.9003 33.4731 25.6249 33.8846 23.5063 32.4965C19.9728 30.1806 16.1397 28.3182 12 26.0233V26.0163Z" fill="black"/>
</svg>
